<?xml version="1.0" encoding="UTF-8"?>
<svg version="1.1" xmlns="http://www.w3.org/2000/svg" width="1254" height="1254">
<path d="M0 0 C413.82 0 827.64 0 1254 0 C1254 413.82 1254 827.64 1254 1254 C840.18 1254 426.36 1254 0 1254 C0 840.18 0 426.36 0 0 Z " fill="#070709" transform="translate(0,0)"/>
<path d="M0 0 C8.19563446 0.19570861 16.3899847 0.23379417 24.58762416 0.26449171 C39.1996524 0.32324768 53.80755704 0.5019752 68.41735243 0.75866223 C82.58934644 1.00739472 96.76021116 1.19805894 110.93395399 1.31237317 C111.81101115 1.31946671 112.6880683 1.32656024 113.59170295 1.33386873 C117.99267392 1.36911073 122.39365275 1.40322941 126.79463683 1.43679012 C163.17121402 1.71563528 199.54310465 2.19023127 235.91564344 2.79552747 C235.98444863 55.5526151 236.03724263 108.30969815 236.06883943 161.0668219 C236.07259114 167.30834036 236.07647414 173.54985874 236.08043836 179.79137708 C236.0812253 181.03384705 236.08201223 182.27631702 236.082823 183.5564376 C236.09584411 203.62189118 236.11947962 223.68731874 236.14710183 243.75275693 C236.17524805 264.37223161 236.1918391 284.99169275 236.19790893 305.61118586 C236.20200633 318.31410407 236.21490377 331.01694868 236.23939284 343.71984421 C236.25536407 352.45422423 236.26001832 361.18856672 236.25614757 369.92296026 C236.25424356 374.94723934 236.2569685 379.97139067 236.27325987 384.99564649 C236.34046132 406.8132212 235.84300807 428.14470499 232.91564344 449.79552747 C232.77614818 450.83753289 232.63665291 451.87953831 232.49293052 452.95311965 C230.372723 468.63266303 230.372723 468.63266303 227.91564344 475.79552747 C227.42165411 477.64908502 226.94153293 479.50635893 226.47033094 481.36583997 C222.90630236 495.34549027 218.70245313 508.58499111 212.91564344 521.79552747 C212.56244032 522.61714368 212.20923719 523.43875989 211.84533094 524.28527356 C204.0520043 542.38443369 195.32249273 559.69483626 183.91564344 575.79552747 C183.21439344 576.79197278 182.51314344 577.78841809 181.79064344 578.81505872 C173.90099383 589.83283113 165.27531032 600.01161156 155.91564344 609.79552747 C155.29592665 610.44392591 154.67620985 611.09232434 154.03771375 611.76037122 C145.21599479 620.92967912 136.17794057 629.27354736 125.91564344 636.79552747 C125.34636122 637.22027356 124.77707899 637.64501966 124.19054579 638.08263684 C116.08013416 644.12828904 107.71017016 649.57982983 98.94445204 654.62609388 C97.54556406 655.43243243 96.15025105 656.24499415 94.7579286 657.06261731 C85.03308174 662.76544645 75.45760839 667.42261991 64.80968641 671.10998059 C61.75297157 672.21635534 58.78182813 673.52435588 55.79064344 674.79552747 C43.11790168 679.89667326 29.71287427 683.01688349 16.41564344 686.04552747 C15.43180677 686.27199964 15.43180677 686.27199964 14.42809461 686.503047 C12.26370944 686.97619787 10.09404487 687.39170664 7.91564344 687.79552747 C7.02328993 687.97357923 6.13093641 688.15163098 5.21154188 688.33507825 C-6.19211771 690.30980668 -17.66959222 690.16769193 -29.2108214 690.16613294 C-32.78505106 690.17046767 -36.35800363 690.20677206 -39.93201281 690.24474622 C-60.44339971 690.34545173 -80.44018874 687.90436998 -100.33435656 682.85802747 C-101.36246447 682.60424329 -102.39057238 682.35045911 -103.44983507 682.0889845 C-111.19720619 680.12996355 -118.66667666 677.78460491 -126.08435656 674.79552747 C-127.18880114 674.36107312 -127.18880114 674.36107312 -128.31555773 673.91784192 C-160.27209501 661.29593203 -189.50464882 644.16235828 -214.84998156 620.84630872 C-216.93602542 618.93167056 -219.06117702 617.07729789 -221.20935656 615.23302747 C-228.05661992 609.25372707 -234.19936201 602.71155453 -240.08435656 595.79552747 C-240.97495405 594.75774345 -241.86558129 593.71998495 -242.75623156 592.68224622 C-247.73709098 586.85740313 -252.58076125 581.00318587 -257.08435656 574.79552747 C-255.57347153 570.30426651 -251.98584697 568.38707621 -248.20935656 565.92052747 C-246.75805439 564.94903743 -245.30757245 563.97632125 -243.85779406 563.00255872 C-242.699088 562.22839612 -242.699088 562.22839612 -241.51697375 561.43859388 C-237.24762797 558.55494302 -233.04570075 555.57542742 -228.83435656 552.60802747 C-222.57445408 548.21187271 -216.28809808 543.87776443 -209.89685656 539.67443372 C-207.79258303 538.2686621 -205.71477462 536.84288664 -203.64685656 535.38537122 C-203.06347521 534.97520765 -202.48009386 534.56504407 -201.87903429 534.1424513 C-200.24795986 532.9918484 -198.6210928 531.83528782 -196.99451281 530.67833997 C-194.38875351 528.99246617 -192.00285654 527.81673373 -189.08435656 526.79552747 C-182.977652 533.64838886 -182.977652 533.64838886 -180.28357531 537.10802747 C-157.67600828 566.10370462 -126.26440091 589.86936922 -91.10510851 601.14098645 C-89.71881561 601.59002007 -88.33726615 602.05388801 -86.96008898 602.53014661 C-43.36849252 617.56522229 4.06716104 610.86647104 44.87536024 591.0108595 C60.96243409 582.90083549 74.74666057 572.0238687 87.91564344 559.79552747 C88.80509657 558.98728528 88.80509657 558.98728528 89.71251844 558.16271497 C95.83817974 552.35792164 100.83911769 545.50843526 105.91564344 538.79552747 C106.55759657 537.94861341 107.19954969 537.10169934 107.86095594 536.22912122 C116.42525947 524.45818312 123.28612305 511.19329435 128.91564344 497.79552747 C129.23919813 497.02595716 129.56275282 496.25638684 129.89611219 495.46349622 C142.7099756 464.28800478 145.21955602 432.01052243 145.23231767 398.72261668 C145.23605383 394.67379433 145.25122949 390.62501155 145.26493238 386.57621289 C145.28707829 379.58165826 145.30216724 372.58711795 145.31229948 365.59253598 C145.32695898 355.4798687 145.35251557 345.36725137 145.38063077 335.2546136 C145.42596754 318.84280913 145.46263619 302.4309974 145.49376844 286.01916028 C145.52400795 270.08783225 145.55840515 254.15652197 145.59826063 238.22521497 C145.60198289 236.73426065 145.60198289 236.73426065 145.60578035 235.21318604 C145.62522301 227.43831843 145.64490481 219.66345144 145.66466211 211.88858462 C145.76124445 173.85758722 145.83698992 135.82657435 145.91564344 97.79552747 C47.57564344 97.79552747 -50.76435656 97.79552747 -152.08435656 97.79552747 C-150.11462376 93.85606188 -147.9048132 91.35146452 -144.82776476 88.32775403 C-144.29251681 87.79382032 -143.75726885 87.2598866 -143.20580126 86.70977307 C-141.43679959 84.94725636 -139.66092822 83.19182679 -137.88513781 81.43615247 C-136.64872219 80.20601266 -135.4128239 78.97535267 -134.17741991 77.7441969 C-130.92102202 74.50110227 -127.65911481 71.26361091 -124.39557482 68.0277052 C-119.18913179 62.86434844 -113.98925736 57.69440084 -108.7928126 52.52098371 C-106.9856966 50.72399792 -105.17515266 48.93052168 -103.36421801 47.13738538 C-102.23866504 46.01867129 -101.11322692 44.89984164 -99.98792101 43.78087903 C-99.49258867 43.29228406 -98.99725634 42.80368909 -98.48691393 42.30028821 C-93.0661366 36.89670193 -88.10372486 31.45982823 -84.00875343 24.96369154 C-64.51442467 -5.04728335 -31.76957797 -0.77965346 0 0 Z " fill="#2E50D6" transform="translate(662.0843565575778,291.2044725306332)"/>
<path d="M0 0 C28.05 0 56.1 0 85 0 C85.06626634 33.5463985 85.12160859 67.09273294 85.15319599 100.63917731 C85.15694764 104.60906103 85.16083065 108.57894461 85.16479492 112.54882812 C85.16558185 113.33908545 85.16636878 114.12934277 85.16717956 114.94354728 C85.18019626 127.70144746 85.20382927 140.45930665 85.23145839 153.21718261 C85.259617 166.32994052 85.27619824 179.44267712 85.28226548 192.55546403 C85.28636037 200.63204587 85.29924364 208.70851181 85.3237494 216.78505793 C85.34163911 223.0017475 85.34333949 229.21835063 85.33932304 235.43506241 C85.34014188 237.96805912 85.34602143 240.50106061 85.35761642 243.03403091 C85.42121505 257.65651858 84.68961691 271.61562643 82 286 C81.8076134 287.10077755 81.6152268 288.2015551 81.41701031 289.33568954 C74.0605973 330.8390341 50.41421318 371.48023481 16 396.25 C13.68684305 397.86459673 11.3505874 399.44052205 9 401 C8.04738281 401.63808594 7.09476563 402.27617188 6.11328125 402.93359375 C-18.9003555 418.59764243 -53.74446136 424.67095774 -82.52026367 418.51196289 C-86.72793246 417.48301848 -90.86936912 416.30280892 -95 415 C-95.78648926 414.75411133 -96.57297852 414.50822266 -97.38330078 414.25488281 C-105.91654741 411.52980092 -114.14925566 408.35938138 -122 404 C-122 403.67 -122 403.34 -122 403 C-121.42668945 402.92483154 -120.85337891 402.84966309 -120.26269531 402.7722168 C-84.43540516 398.01895718 -54.18803167 384.72653228 -31.4375 355.3125 C-6.2655092 320.43511134 -0.71563396 282.13401048 -0.68115234 240.10620117 C-0.67183189 237.47258829 -0.66174428 234.83898853 -0.65071106 232.2053833 C-0.62864822 226.5810467 -0.61351028 220.95672763 -0.60334396 215.33235741 C-0.58863554 207.2008938 -0.56306653 199.06949147 -0.53501268 190.93806425 C-0.48976298 177.7390807 -0.45305905 164.5400882 -0.421875 151.34106445 C-0.39159933 138.53440793 -0.35720834 125.72777312 -0.31738281 112.92114258 C-0.31492126 112.12913195 -0.31245972 111.33712133 -0.30992357 110.52111038 C-0.29754723 106.54704647 -0.28509103 102.57298281 -0.27259517 98.59891927 C-0.16935486 65.73263874 -0.08164562 32.86634303 0 0 Z " fill="#2550E0" transform="translate(678,450)"/>
<path d="M0 0 C8.19891907 0.18837005 16.396644 0.2251282 24.59741987 0.254696 C39.21539304 0.31129042 53.82954625 0.48344125 68.44545075 0.73056392 C82.62429886 0.97004425 96.8020959 1.15336847 110.98256012 1.26376704 C111.86877308 1.27073497 112.75498605 1.27770291 113.66805395 1.28488199 C120.60113055 1.33896228 127.53422973 1.38983695 134.46733781 1.43970064 C168.3214611 1.68400037 202.16599658 2.20724822 236.01918121 2.6919897 C236.01918121 63.7419897 236.01918121 124.7919897 236.01918121 187.6919897 C235.68918121 187.6919897 235.35918121 187.6919897 235.01918121 187.6919897 C235.01918121 127.3019897 235.01918121 66.9119897 235.01918121 4.6919897 C183.53283981 4.63337437 183.53283981 4.63337437 132.04652496 4.6373022 C130.81448149 4.63829661 130.81448149 4.63829661 129.55754825 4.63931111 C93.87560902 4.6688304 58.19375923 4.74056024 22.51227566 4.92931441 C20.86488881 4.93802895 19.21750194 4.94674014 17.57011505 4.95544795 C16.35404453 4.96189071 16.35404453 4.96189071 15.11340692 4.96846364 C9.39503167 4.99802502 3.6766587 5.01975009 -2.04176239 5.03815059 C-9.01504694 5.0607292 -15.98818359 5.0937637 -22.96134923 5.14059094 C-26.52190105 5.16426423 -30.082313 5.18326847 -33.64294151 5.18962077 C-37.50215595 5.1967278 -41.36098907 5.22697175 -45.2200766 5.25961665 C-46.34917607 5.25818125 -47.47827555 5.25674584 -48.64159016 5.25526694 C-50.19242062 5.27407463 -50.19242062 5.27407463 -51.77458099 5.29326228 C-52.66567188 5.29787125 -53.55676277 5.30248021 -54.47485641 5.30722884 C-60.33912229 6.20761744 -64.12831983 10.55606067 -68.12925629 14.60995845 C-68.99268143 15.47407092 -68.99268143 15.47407092 -69.8735495 16.35564021 C-71.08779043 17.57289274 -72.29960956 18.79256532 -73.5091391 20.01449946 C-75.33779615 21.86128836 -77.17420263 23.70007316 -79.01206879 25.53769282 C-85.42070539 31.96573946 -91.68037807 38.43934463 -97.43516449 45.46835689 C-99.988562 48.54336202 -102.58076692 51.2892763 -105.63340668 53.87631587 C-110.15251489 57.78916373 -114.38220984 61.94907253 -118.60191254 66.18027095 C-119.3872789 66.96468058 -120.17264526 67.74909022 -120.98181061 68.55726985 C-122.62585596 70.20063946 -124.26865831 71.84525345 -125.91026215 73.49106196 C-128.43199099 76.01819118 -130.95907042 78.53988258 -133.48667816 81.06113032 C-135.08791074 82.66302294 -136.6888335 84.26522533 -138.28941254 85.86777095 C-139.42521004 87.0005321 -139.42521004 87.0005321 -140.58395294 88.15617732 C-141.27880295 88.85417949 -141.97365295 89.55218165 -142.68955902 90.2713354 C-143.3027449 90.88531688 -143.91593079 91.49929835 -144.54769806 92.13188533 C-146.07503681 93.65064816 -146.07503681 93.65064816 -146.98081879 95.6919897 C-148.30081879 95.3619897 -149.62081879 95.0319897 -150.98081879 94.6919897 C-150.26973465 93.98312617 -149.55865051 93.27426265 -148.82601837 92.54391841 C-142.10026544 85.83850381 -135.37720526 79.13039961 -128.65672115 72.41970424 C-125.20220395 68.9703888 -121.74676982 65.52200279 -118.2891684 62.07577876 C-114.94772714 58.74526303 -111.60878853 55.41225663 -108.27151588 52.07756404 C-107.00266421 50.81054928 -105.7329379 49.54440977 -104.46229271 48.27919368 C-102.67238962 46.49662957 -100.88572198 44.71087848 -99.09971527 42.92441157 C-98.58253937 42.41083095 -98.06536346 41.89725032 -97.53251556 41.36810664 C-91.59182103 35.41100185 -86.4572207 29.46111925 -81.97535614 22.31250361 C-62.98713993 -5.5414846 -29.97364499 -0.70768916 0 0 Z " fill="#0A7CF7" transform="translate(660.980818785727,292.30801030248404)"/>
<path d="M0 0 C27.72 0 55.44 0 84 0 C84 50.49 84 100.98 84 153 C83.67 153 83.34 153 83 153 C82.505 78.255 82.505 78.255 82 2 C57.25 2 32.5 2 7 2 C6.01 1.67 5.02 1.34 4 1 C2.71805357 4.84583928 2.84653997 8.47675766 2.84178162 12.48503113 C2.83684364 13.36147461 2.83190566 14.23791809 2.82681805 15.14092046 C2.81141309 18.08898083 2.8030743 21.03701937 2.79467773 23.98510742 C2.78510157 26.09389947 2.77509164 28.20268958 2.76467896 30.31147766 C2.7375955 36.04664197 2.71660457 41.78181455 2.69667697 47.51700759 C2.67483862 53.50682192 2.64743942 59.49661069 2.62062073 65.48640442 C2.57066471 76.83356647 2.52573668 88.18074267 2.48259836 99.52793247 C2.43325083 112.44433907 2.3783235 125.36072005 2.32291877 138.27710187 C2.20905407 164.85137734 2.10222481 191.42567739 2 218 C1.67 218 1.34 218 1 218 C0.09971823 192.82733935 -0.1389196 167.68543906 -0.10139394 142.49818826 C-0.09500847 137.46283887 -0.0945449 132.42748843 -0.09336853 127.39213562 C-0.09029889 117.91952425 -0.08214643 108.44692485 -0.07201904 98.97431868 C-0.05859394 86.12978443 -0.0533226 73.28524674 -0.04751682 60.44070721 C-0.03820193 40.29379589 -0.01825452 20.1469098 0 0 Z " fill="#0D6CF1" transform="translate(678,450)"/>
<path d="M0 0 C0.495 1.485 0.495 1.485 1 3 C0.15816162 3.83660156 -0.68367676 4.67320312 -1.55102539 5.53515625 C-4.70516442 8.67105076 -7.85587441 11.810372 -11.00561523 14.95068359 C-12.36342127 16.30349355 -13.72212751 17.65540066 -15.08178711 19.00634766 C-22.48936152 26.36767573 -29.8304282 33.67998946 -36.44921875 41.77172852 C-39.0053353 44.84737072 -41.5981909 47.59579738 -44.65258789 50.18432617 C-49.1716961 54.09717404 -53.40139105 58.25708283 -57.62109375 62.48828125 C-58.7991433 63.66489571 -58.7991433 63.66489571 -60.00099182 64.86528015 C-61.64503717 66.50864976 -63.28783953 68.15326375 -64.92944336 69.79907227 C-67.4511722 72.32620148 -69.97825164 74.84789288 -72.50585938 77.36914062 C-74.10709195 78.97103324 -75.70801471 80.57323563 -77.30859375 82.17578125 C-78.44439125 83.3085424 -78.44439125 83.3085424 -79.60313416 84.46418762 C-80.29798416 85.16218979 -80.99283417 85.86019196 -81.70874023 86.5793457 C-82.32192612 87.19332718 -82.935112 87.80730865 -83.56687927 88.43989563 C-85.09421803 89.95865847 -85.09421803 89.95865847 -86 92 C-87.32 91.67 -88.64 91.34 -90 91 C-89.28891586 90.29113647 -88.57783173 89.58227295 -87.84519958 88.85192871 C-81.11944665 82.14651411 -74.39638647 75.43840991 -67.67590237 68.72771454 C-64.22138516 65.2783991 -60.76595103 61.83001309 -57.30834961 58.38378906 C-53.96690835 55.05327334 -50.62796975 51.72026694 -47.2906971 48.38557434 C-46.02184543 47.11855958 -44.75211912 45.85242007 -43.48147392 44.58720398 C-34.73025235 35.8730235 -34.73025235 35.8730235 -26.4705658 26.69641113 C-24.0608279 23.9165925 -21.46099538 21.33692876 -18.84765625 18.75 C-18.30265976 18.20641846 -17.75766327 17.66283691 -17.19615173 17.1027832 C-15.48730783 15.39945185 -13.77498803 13.69966674 -12.0625 12 C-10.88973991 10.83226626 -9.71721202 9.66429926 -8.54492188 8.49609375 C-5.69928311 5.66136766 -2.85052547 2.82981176 0 0 Z " fill="#058AEF" transform="translate(600,296)"/>
<path d="M0 0 C0.99 0.495 0.99 0.495 2 1 C-2.26926383 4.80736512 -6.41299574 7.48010925 -11.5625 9.9375 C-12.61957153 10.45062744 -12.61957153 10.45062744 -13.69799805 10.97412109 C-15.12815996 11.66585873 -16.56018987 12.35374877 -17.99414062 13.03759766 C-19.76048914 13.88508376 -21.51415797 14.75889018 -23.265625 15.63671875 C-34.54740641 21.14743505 -47.40380707 26.26378078 -60.0703125 26.85546875 C-62.25245754 26.93983684 -62.25245754 26.93983684 -65.1875 28.0625 C-68.55690702 29.18563567 -71.4718821 29.06917878 -75 29 C-75.495 29.495 -75.495 29.495 -76 30 C-79.02663894 30.26784415 -82.02971138 30.47075196 -85.0625 30.625 C-85.89716797 30.6765625 -86.73183594 30.728125 -87.59179688 30.78125 C-92.89640124 31.06239817 -97.74465478 30.73885932 -103 30 C-104.68754349 29.98305193 -106.37611411 29.99774729 -108.0625 30.0625 C-112.44549409 30.12346901 -115.87085061 29.43622588 -120 28 C-120 27.67 -120 27.34 -120 27 C-118.78755615 27.02094727 -117.5751123 27.04189453 -116.32592773 27.06347656 C-84.36975368 28.07715614 -84.36975368 28.07715614 -53 23 C-52.04931641 22.73687012 -51.09863281 22.47374023 -50.11914062 22.20263672 C-32.82572667 17.24522879 -14.75597764 10.49096084 0 0 Z " fill="#4735A5" transform="translate(721,874)"/>
<path d="M0 0 C-4.03927713 0.96858822 -8.08181215 1.92288019 -12.125 2.875 C-13.24777344 3.14441406 -14.37054687 3.41382813 -15.52734375 3.69140625 C-28.90443715 6.82546813 -41.63139632 8.3069418 -55.375 8.125 C-56.70832645 8.11492858 -58.04166045 8.10581023 -59.375 8.09765625 C-62.58353441 8.074406 -65.79166204 8.04173343 -69 8 C-65.84943686 6.14981411 -63.60685678 5.76941743 -59.97265625 5.83984375 C-59.01552734 5.85080078 -58.05839844 5.86175781 -57.07226562 5.87304688 C-56.07904297 5.89431641 -55.08582031 5.91558594 -54.0625 5.9375 C-52.09512849 5.97210523 -50.12767148 6.00220401 -48.16015625 6.02734375 C-47.29011963 6.04531006 -46.42008301 6.06327637 -45.52368164 6.08178711 C-42.96261967 6.07356449 -42.96261967 6.07356449 -40.36499023 5.43579102 C-38 5 -38 5 -35 6 C-35 5.34 -35 4.68 -35 4 C-32.69 4.33 -30.38 4.66 -28 5 C-28 4.34 -28 3.68 -28 3 C-26.02 3.33 -24.04 3.66 -22 4 C-22 3.34 -22 2.68 -22 2 C-19.08662491 1.27465353 -16.17076869 0.56935452 -13.25 -0.125 C-12.425 -0.33253906 -11.6 -0.54007813 -10.75 -0.75390625 C-9.95078125 -0.94082031 -9.1515625 -1.12773438 -8.328125 -1.3203125 C-7.22839355 -1.58739014 -7.22839355 -1.58739014 -6.10644531 -1.85986328 C-3.51952993 -2.03196451 -2.19091176 -1.32060887 0 0 Z " fill="#532E9B" transform="translate(696,973)"/>
<path d="M0 0 C0.65234375 1.77734375 0.65234375 1.77734375 1 4 C0.06640625 5.75390625 0.06640625 5.75390625 -1.4375 7.5625 C-4.03223658 10.78644522 -6.48481382 14.05810805 -8.875 17.4375 C-12.08813182 21.87321926 -15.51115137 25.98405024 -19.2109375 30.01953125 C-20.65260437 31.61543759 -21.99950772 33.29665866 -23.3125 35 C-27.90760068 40.60224603 -34.35797519 46.06188079 -41 49 C-38.69444699 45.82986462 -36.21052644 43.22842427 -33.25 40.6875 C-19.9406179 29.21643034 -8.92908979 15.12098836 0 0 Z " fill="#4C33AD" transform="translate(778,815)"/>
<path d="M0 0 C0.33 0 0.66 0 1 0 C1.04630689 9.46618938 1.08186079 18.93233988 1.10362434 28.39861774 C1.11406888 32.79402474 1.12824027 37.18935435 1.15087891 41.5847168 C1.17258344 45.82517955 1.18456358 50.06556777 1.18975449 54.30608177 C1.19345454 55.92523561 1.20067969 57.54438529 1.21146011 59.16350746 C1.22594339 61.4285125 1.22797929 63.69320818 1.22705078 65.95825195 C1.231492 67.24842728 1.23593323 68.5386026 1.24050903 69.86787415 C1 73 1 73 -1 76 C-1.39387788 78.32387947 -1.73486085 80.65793749 -2 83 C-2.33 83 -2.66 83 -3 83 C-3.08449706 78.1376407 -2.89817493 73.47453879 -2.32040405 68.64898682 C-0.63403834 54.55039144 -0.55262028 40.43186917 -0.375 26.25 C-0.33671015 23.69139457 -0.29765257 21.13280051 -0.2578125 18.57421875 C-0.16304608 12.38291533 -0.07767235 6.19154028 0 0 Z " fill="#4045E0" transform="translate(809,652)"/>
<path d="M0 0 C3.80154762 0.38990232 6.83515622 1.30589613 10.25 2.9375 C14.41427523 4.8888412 18.41057837 5.84809372 22.93359375 6.60546875 C25 7 25 7 27 8 C28.55898491 8.17955402 30.12260877 8.32007325 31.6875 8.4375 C36.05014826 8.83410439 39.83591005 9.66749122 44 11 C45.33130115 11.34135927 46.66358148 11.67925956 48 12 C48 12.33 48 12.66 48 13 C42.06753729 13.18201874 36.78626084 12.58926083 31 11.3125 C30.18055908 11.13605957 29.36111816 10.95961914 28.5168457 10.77783203 C20.51493875 8.99619667 12.76802858 6.6100576 5 4 C3.86175781 3.62101563 2.72351563 3.24203125 1.55078125 2.8515625 C0.70902344 2.57054687 -0.13273438 2.28953125 -1 2 C-0.67 1.34 -0.34 0.68 0 0 Z " fill="#432A89" transform="translate(540,965)"/>
<path d="M0 0 C-9.02985458 5.55900423 -17.96789306 9.73677965 -27.95800781 13.25585938 C-32.693904 14.98170963 -37.33270267 16.96892034 -41.98828125 18.8984375 C-45 20 -45 20 -48 20 C-48 19.34 -48 18.68 -48 18 C-47.46109131 17.80365967 -46.92218262 17.60731934 -46.36694336 17.4050293 C-43.88972109 16.50120305 -41.41360862 15.5943725 -38.9375 14.6875 C-38.08994141 14.37876953 -37.24238281 14.07003906 -36.36914062 13.75195312 C-29.85104938 11.36114746 -23.5060532 8.7537398 -17.265625 5.703125 C-16.44449219 5.30222656 -15.62335937 4.90132812 -14.77734375 4.48828125 C-13.073662 3.65355619 -11.37318675 2.81225864 -9.67578125 1.96484375 C-8.85980469 1.56910156 -8.04382813 1.17335938 -7.203125 0.765625 C-6.46739258 0.40243164 -5.73166016 0.03923828 -4.97363281 -0.33496094 C-3 -1 -3 -1 0 0 Z " fill="#5A30A7" transform="translate(755,949)"/>
<path d="M0 0 C0.33 0.99 0.66 1.98 1 3 C-8.57 12.57 -18.14 22.14 -28 32 C-28.99 31.67 -29.98 31.34 -31 31 C-20.77 20.77 -10.54 10.54 0 0 Z " fill="#087ED9" transform="translate(600,296)"/>
<path d="M0 0 C3.63 1.65 7.26 3.3 11 5 C11 5.66 11 6.32 11 7 C11.83789062 7.10183594 12.67578125 7.20367188 13.5390625 7.30859375 C17.40668124 8.08124445 20.80051462 9.4543547 24.375 11.0625 C25.01566406 11.34416016 25.65632812 11.62582031 26.31640625 11.91601562 C27.88029659 12.60459421 29.44053941 13.30144711 31 14 C31 14.66 31 15.32 31 16 C25.22156072 15.02980729 20.29617368 12.61029149 15 10.1875 C14.01515625 9.74857422 13.0303125 9.30964844 12.015625 8.85742188 C7.21039697 6.67234183 2.92021851 4.62451237 -1 1 C-0.67 0.67 -0.34 0.34 0 0 Z " fill="#4530A0" transform="translate(500,947)"/>
<path d="M0 0 C-2.8822106 2.8822106 -6.24869013 2.9689061 -10.125 3.625 C-11.25615234 3.82609375 -11.25615234 3.82609375 -12.41015625 4.03125 C-14.27219918 4.36123229 -16.13595175 4.68154073 -18 5 C-17.67 5.99 -17.34 6.98 -17 8 C-18.48199902 7.55090939 -19.96055236 7.09043436 -21.4375 6.625 C-22.26121094 6.36976563 -23.08492187 6.11453125 -23.93359375 5.8515625 C-26 5 -26 5 -27 3 C-26.38479492 2.91435791 -25.76958984 2.82871582 -25.13574219 2.74047852 C-22.34017963 2.35003829 -19.54509064 1.95630373 -16.75 1.5625 C-15.78191406 1.42779297 -14.81382812 1.29308594 -13.81640625 1.15429688 C-12.88183594 1.02216797 -11.94726562 0.89003906 -10.984375 0.75390625 C-9.69611816 0.57323608 -9.69611816 0.57323608 -8.38183594 0.38891602 C-6.01407785 0.04705852 -6.01407785 0.04705852 -3.81347656 -0.60961914 C-2 -1 -2 -1 0 0 Z " fill="#3835B5" transform="translate(583,850)"/>
<path d="M0 0 C0.66 0 1.32 0 2 0 C1.65371382 10.11155648 -0.32468598 19.30665292 -3 29 C-3.66 29 -4.32 29 -5 29 C-3.31218119 18.06508876 -3.31218119 18.06508876 -1.9375 13.375 C-0.70883927 8.95182139 -0.34909523 4.56579812 0 0 Z " fill="#4A33A6" transform="translate(892,742)"/>
<path d="M0 0 C3.5625 0.1875 3.5625 0.1875 6.5625 1.1875 C9.04924479 1.20730343 11.51555738 1.18931443 14 1.125 C18.58126211 1.01304345 21.56919672 0.96290256 25.5625 3.1875 C21.52084861 3.21665731 17.4792245 3.23435173 13.4375 3.25 C11.72433594 3.26256836 11.72433594 3.26256836 9.9765625 3.27539062 C8.86796875 3.27861328 7.759375 3.28183594 6.6171875 3.28515625 C5.09327393 3.29301147 5.09327393 3.29301147 3.53857422 3.30102539 C0.47135274 3.18402309 -2.42383134 2.75526417 -5.4375 2.1875 C-3.4375 0.1875 -3.4375 0.1875 0 0 Z " fill="#532F9F" transform="translate(600.4375,977.8125)"/>
<path d="M0 0 C1.07910156 1.79296875 1.07910156 1.79296875 2 4 C1.0353658 6.5247216 0.04781455 8.65903639 -1.25 11 C-1.57613281 11.61617187 -1.90226563 12.23234375 -2.23828125 12.8671875 C-3.14817457 14.58382834 -4.07360371 16.29220858 -5 18 C-5.67384466 19.32972012 -6.34326474 20.66174702 -7 22 C-7.33 22.66 -7.66 23.32 -8 24 C-8.66 24 -9.32 24 -10 24 C-8.36368504 18.6776703 -6.16119959 13.69018424 -3.875 8.625 C-3.50246094 7.79355469 -3.12992188 6.96210937 -2.74609375 6.10546875 C-1.83326454 4.06915745 -0.91784402 2.03405461 0 0 Z " fill="#4333A4" transform="translate(793,784)"/>
<path d="M0 0 C5.92794927 0.45324361 11.33497925 1.18719336 17 3 C18.33130115 3.34135927 19.66358148 3.67925956 21 4 C21 4.33 21 4.66 21 5 C5.91428571 5.55873016 5.91428571 5.55873016 1.20703125 1.42578125 C0.80871094 0.95527344 0.41039062 0.48476563 0 0 Z " fill="#4F30A2" transform="translate(567,973)"/>
<path d="M0 0 C0.66 0.33 1.32 0.66 2 1 C-3.99191682 5.8771416 -10.58545567 8.82230166 -18 11 C-18.66 10.67 -19.32 10.34 -20 10 C-17.06613173 8.53306587 -14.13195421 7.06684719 -11.1953125 5.60546875 C-9.28561196 4.64594929 -7.38209407 3.67372257 -5.4921875 2.67578125 C-3.68974075 1.72800021 -1.84800532 0.85555802 0 0 Z " fill="#3B3BC5" transform="translate(608,838)"/>
<path d="M0 0 C0 3 0 3 -1.23754883 4.60986328 C-1.80497803 5.17431152 -2.37240723 5.73875977 -2.95703125 6.3203125 C-3.88418945 7.24650391 -3.88418945 7.24650391 -4.83007812 8.19140625 C-5.81137695 9.14853516 -5.81137695 9.14853516 -6.8125 10.125 C-7.77639648 11.09373047 -7.77639648 11.09373047 -8.75976562 12.08203125 C-13.59935095 16.86645032 -13.59935095 16.86645032 -17 18 C-15.60493574 14.74957109 -14.03216606 12.92628208 -11.3125 10.6875 C-7.32505143 7.31967324 -3.63748264 3.73978684 0 0 Z " fill="#383BC8" transform="translate(642,811)"/>
<path d="M0 0 C0.33 0 0.66 0 1 0 C1.22155127 2.93705131 1.42774197 5.87380363 1.625 8.8125 C1.68945312 9.64587891 1.75390625 10.47925781 1.8203125 11.33789062 C1.871875 12.14033203 1.9234375 12.94277344 1.9765625 13.76953125 C2.02893066 14.50792236 2.08129883 15.24631348 2.13525391 16.00708008 C2 18 2 18 0 21 C-0.39387788 23.32387947 -0.73486085 25.65793749 -1 28 C-1.33 28 -1.66 28 -2 28 C-2.11665117 21.75916215 -1.66713776 15.70257811 -1 9.5 C-0.90460937 8.5821875 -0.80921875 7.664375 -0.7109375 6.71875 C-0.47760493 4.47875735 -0.24055688 2.23922632 0 0 Z " fill="#3C39B1" transform="translate(808,707)"/>
<path d="M0 0 C0.66 0.33 1.32 0.66 2 1 C-2.40608044 4.96547239 -6.62277718 7.49681007 -12 10 C-12.66 9.34 -13.32 8.68 -14 8 C-11.7136988 6.63597957 -9.42178251 5.28365726 -7.125 3.9375 C-6.47402344 3.54755859 -5.82304688 3.15761719 -5.15234375 2.75585938 C-3.46934275 1.77555467 -1.73703801 0.88101568 0 0 Z " fill="#4F36AE" transform="translate(721,874)"/>
<path d="M0 0 C-1.27446687 3.8234006 -2.56756418 4.04975237 -6 6 C-8.48166342 7.90453239 -10.78851208 9.78851208 -13 12 C-13 10.68 -13 9.36 -13 8 C-10.6640625 5.859375 -10.6640625 5.859375 -7.625 3.75 C-6.62726563 3.04359375 -5.62953125 2.3371875 -4.6015625 1.609375 C-2 0 -2 0 0 0 Z " fill="#3740CF" transform="translate(419,855)"/>
<path d="M0 0 C0.33 0 0.66 0 1 0 C1.22370596 2.20682907 1.42830391 4.41559973 1.625 6.625 C1.74101563 7.85476563 1.85703125 9.08453125 1.9765625 10.3515625 C2.00034163 14.05318114 1.37441976 16.59017997 0 20 C-0.33 20 -0.66 20 -1 20 C-1.11381955 13.23405981 -0.88021369 6.71162938 0 0 Z " fill="#273DBB" transform="translate(677,717)"/>
<path d="M0 0 C0.33 0.99 0.66 1.98 1 3 C-1.64 5.64 -4.28 8.28 -7 11 C-7.66 10.34 -8.32 9.68 -9 9 C-6.03 6.03 -3.06 3.06 0 0 Z " fill="#071428" transform="translate(567,327)"/>
<path d="M0 0 C0.66 0.33 1.32 0.66 2 1 C-1.3 4.3 -4.6 7.6 -8 11 C-8 8 -8 8 -6.0625 6 C-5.381875 5.34 -4.70125 4.68 -4 4 C-3.67 3.01 -3.34 2.02 -3 1 C-2.01 0.67 -1.02 0.34 0 0 Z " fill="#5C30A9" transform="translate(824,892)"/>
<path d="M0 0 C3.9492568 0.55105909 7.34920174 1.38935371 11 3 C11 3.33 11 3.66 11 4 C6.53160785 4.21278058 3.17737474 3.59138085 -1 2 C-0.67 1.34 -0.34 0.68 0 0 Z " fill="#4F32AC" transform="translate(540,965)"/>
<path d="M0 0 C0.33 0 0.66 0 1 0 C0.25 6.625 0.25 6.625 -2 10 C-2.66 10 -3.32 10 -4 10 C-2.66666667 6.66666667 -1.33333333 3.33333333 0 0 Z " fill="#3037BB" transform="translate(662,779)"/>
<path d="M0 0 C-3.82517513 2.39073445 -7.59665524 2.55966552 -12 3 C-8.2391768 -0.7608232 -5.0273023 -0.25136512 0 0 Z " fill="#4D37BA" transform="translate(676,897)"/>
<path d="M0 0 C0.33 0 0.66 0 1 0 C1.25 2.75 1.25 2.75 1 6 C-1 8.375 -1 8.375 -3 10 C-2.01 6.7 -1.02 3.4 0 0 Z " fill="#1A0E33" transform="translate(881,795)"/>
<path d="M0 0 C0.33 0 0.66 0 1 0 C0.67 2.64 0.34 5.28 0 8 C-0.99 8.33 -1.98 8.66 -3 9 C-2.01 6.03 -1.02 3.06 0 0 Z " fill="#2E3ABF" transform="translate(666,770)"/>
<path d="M0 0 C-1.39332574 3.36720387 -2.9789286 4.9859524 -6 7 C-5.37162381 3.35541809 -4.14650034 0 0 0 Z " fill="#06162B" transform="translate(555,341)"/>
</svg>
